<svg id="SvgjsSvg1006" width="1306.84375" height="1158.625" xmlns="http://www.w3.org/2000/svg" version="1.1" xmlns:xlink="http://www.w3.org/1999/xlink" xmlns:svgjs="http://svgjs.com/svgjs"><defs id="SvgjsDefs1007"><pattern id="SvgjsPattern1014" x="0" y="0" width="32.67369436715512" height="62.22884818533623" patternUnits="userSpaceOnUse"><image id="SvgjsImage1015" xlink:href="https://www.processon.com/assets/images/designer/network/iphone.svg" width="32.67369436715512" height="62.22884818533623" preserveAspectRatio="none" crossOrigin="anonymous" x="0" y="0"></image></pattern><pattern id="SvgjsPattern1020" x="0" y="0" width="44.62844802864464" height="65.12284692050349" patternUnits="userSpaceOnUse"><image id="SvgjsImage1021" xlink:href="https://www.processon.com/assets/images/designer/network/tab.svg" width="44.62844802864464" height="65.12284692050349" preserveAspectRatio="none" crossOrigin="anonymous" x="0" y="0"></image></pattern><pattern id="SvgjsPattern1026" x="0" y="0" width="78.91151610122542" height="72.62547905420207" patternUnits="userSpaceOnUse"><image id="SvgjsImage1027" xlink:href="https://www.processon.com/assets/images/designer/network/pc.svg" width="78.91151610122542" height="72.62547905420207" preserveAspectRatio="none" crossOrigin="anonymous" x="0" y="0"></image></pattern></defs><g id="SvgjsG1008" transform="translate(308.125,25.012227975775147)"><path id="SvgjsPath1009" d="M 0 4Q 0 0 4 0L 965.9286884547209 0Q 969.9286884547209 0 969.9286884547209 4L 969.9286884547209 120.93152701455278Q 969.9286884547209 124.93152701455278 965.9286884547209 124.93152701455278L 4 124.93152701455278Q 0 124.93152701455278 0 120.93152701455278Z" stroke="rgba(50,50,50,1)" stroke-width="2" fill-opacity="1" fill="#ffffff"></path><g id="SvgjsG1010"><text id="SvgjsText1011" font-family="微软雅黑" text-anchor="middle" font-size="23px" width="950px" fill="#323232" font-weight="400" align="middle" lineHeight="125%" anchor="middle" family="微软雅黑" size="23px" weight="400" font-style="" opacity="1" y="43.59076350727639" transform="rotate(0)"></text></g></g><g id="SvgjsG1012" transform="translate(466.84056541537643,40.592469888095025)"><path id="SvgjsPath1013" d="M 0 0L 32.67369436715512 0L 32.67369436715512 62.22884818533623L 0 62.22884818533623Z" stroke="none" fill="url(#SvgjsPattern1014)"></path><g id="SvgjsG1016"><text id="SvgjsText1017" font-family="微软雅黑" text-anchor="middle" font-size="13px" width="73px" fill="#323232" font-weight="400" align="middle" lineHeight="125%" anchor="middle" family="微软雅黑" size="13px" weight="400" font-style="" opacity="1" y="67.60384818533623" transform="rotate(0)"></text></g></g><g id="SvgjsG1018" transform="translate(557.0800571378545,37.698471152927766)"><path id="SvgjsPath1019" d="M 0 0L 44.62844802864464 0L 44.62844802864464 65.12284692050349L 0 65.12284692050349Z" stroke="none" fill="url(#SvgjsPattern1020)"></path><g id="SvgjsG1022"><text id="SvgjsText1023" font-family="微软雅黑" text-anchor="middle" font-size="13px" width="85px" fill="#323232" font-weight="400" align="middle" lineHeight="125%" anchor="middle" family="微软雅黑" size="13px" weight="400" font-style="" opacity="1" y="70.49784692050349" transform="rotate(0)"></text></g></g><g id="SvgjsG1024" transform="translate(806.1339263916016,40.592469888095025)"><path id="SvgjsPath1025" d="M 0 0L 78.91151610122542 0L 78.91151610122542 72.62547905420207L 0 72.62547905420207Z" stroke="none" fill="url(#SvgjsPattern1026)"></path><g id="SvgjsG1028"><text id="SvgjsText1029" font-family="微软雅黑" text-anchor="middle" font-size="23px" width="119px" fill="#323232" font-weight="400" align="middle" lineHeight="125%" anchor="middle" family="微软雅黑" size="23px" weight="400" font-style="" opacity="1" y="68.75047905420207" transform="rotate(0)"><tspan id="SvgjsTspan1030" dy="28" x="39.5"><tspan id="SvgjsTspan1031" style="text-decoration:;">PC</tspan></tspan></text></g></g><g id="SvgjsG1032" transform="translate(461.13792628016586,99.30225028766881)"><path id="SvgjsPath1033" d="M 0 0L 122.13398718111878 0L 122.13398718111878 50.641504702659134L 0 50.641504702659134Z" stroke="none" fill="none"></path><g id="SvgjsG1034"><text id="SvgjsText1035" font-family="微软雅黑" text-anchor="middle" font-size="23px" width="123px" fill="#323232" font-weight="400" align="middle" lineHeight="125%" anchor="middle" family="微软雅黑" size="23px" weight="400" font-style="" opacity="1" y="-7.554247648670433" transform="rotate(0)"><tspan id="SvgjsTspan1036" dy="28" x="61.5"><tspan id="SvgjsTspan1037" style="text-decoration:;">Mobile </tspan></tspan><tspan id="SvgjsTspan1038" dy="28" x="61.5"><tspan id="SvgjsTspan1039" style="text-decoration:;">Devices</tspan></tspan></text></g></g><g id="SvgjsG1040" transform="translate(53.37063079745252,29.788679615569094)"><path id="SvgjsPath1041" d="M 0 4Q 0 0 4 0L 117.35739520801516 0Q 121.35739520801516 0 121.35739520801516 4L 121.35739520801516 111.3786237349649Q 121.35739520801516 115.3786237349649 117.35739520801516 115.3786237349649L 4 115.3786237349649Q 0 115.3786237349649 0 111.3786237349649Z" stroke="rgba(50,50,50,1)" stroke-width="2" fill-opacity="1" fill="#99ff99"></path><g id="SvgjsG1042"><text id="SvgjsText1043" font-family="微软雅黑" text-anchor="middle" font-size="24px" width="102px" fill="#323232" font-weight="400" align="middle" lineHeight="125%" anchor="middle" family="微软雅黑" size="24px" weight="400" font-style="" opacity="1" y="22.689311867482452" transform="rotate(0)"><tspan id="SvgjsTspan1044" dy="30" x="61"><tspan id="SvgjsTspan1045" style="text-decoration:;">Access </tspan></tspan><tspan id="SvgjsTspan1046" dy="30" x="61"><tspan id="SvgjsTspan1047" style="text-decoration:;">layer</tspan></tspan></text></g></g><g id="SvgjsG1048" transform="translate(302.3890977778665,167.59190692784637)"><path id="SvgjsPath1049" d="M 0 4Q 0 0 4 0L 570.5621184188191 0Q 574.5621184188191 0 574.5621184188191 4L 574.5621184188191 67.28788104720184Q 574.5621184188191 71.28788104720184 570.5621184188191 71.28788104720184L 4 71.28788104720184Q 0 71.28788104720184 0 67.28788104720184Z" stroke="rgba(50,50,50,1)" stroke-width="2" fill-opacity="1" fill="#ccff99"></path><g id="SvgjsG1050"><text id="SvgjsText1051" font-family="宋体" text-anchor="start" font-size="13px" width="555px" fill="#323232" font-weight="700" align="top" lineHeight="125%" anchor="start" family="宋体" size="13px" weight="700" font-style="" opacity="1" y="-1.625" transform="rotate(0)"><tspan id="SvgjsTspan1052" dy="16" x="10"><tspan id="SvgjsTspan1053" style="text-decoration:;">PC WEB-end</tspan></tspan></text></g></g><g id="SvgjsG1054" transform="translate(53.37063079745258,164.59190692784637)"><path id="SvgjsPath1055" d="M 0 4Q 0 0 4 0L 117.35739520801508 0Q 121.35739520801508 0 121.35739520801508 4L 121.35739520801508 67.28788104720184Q 121.35739520801508 71.28788104720184 117.35739520801508 71.28788104720184L 4 71.28788104720184Q 0 71.28788104720184 0 67.28788104720184Z" stroke="rgba(50,50,50,1)" stroke-width="2" fill-opacity="1" fill="#99ff99"></path><g id="SvgjsG1056"><text id="SvgjsText1057" font-family="微软雅黑" text-anchor="middle" font-size="24px" width="102px" fill="#323232" font-weight="400" align="middle" lineHeight="125%" anchor="middle" family="微软雅黑" size="24px" weight="400" font-style="" opacity="1" y="0.6439405236009179" transform="rotate(0)"><tspan id="SvgjsTspan1058" dy="30" x="61"><tspan id="SvgjsTspan1059" style="text-decoration:;">Front-end </tspan></tspan><tspan id="SvgjsTspan1060" dy="30" x="61"><tspan id="SvgjsTspan1061" style="text-decoration:;">UI</tspan></tspan></text></g></g><g id="SvgjsG1062" transform="translate(324.1910446514746,184.62931975987487)"><path id="SvgjsPath1063" d="M 0 4Q 0 0 4 0L 108.6606437331334 0Q 112.6606437331334 0 112.6606437331334 4L 112.6606437331334 33.21305538314484Q 112.6606437331334 37.21305538314484 108.6606437331334 37.21305538314484L 4 37.21305538314484Q 0 37.21305538314484 0 33.21305538314484Z" stroke="rgba(50,50,50,1)" stroke-width="2" fill-opacity="1" fill="#ffffff"></path><g id="SvgjsG1064"><text id="SvgjsText1065" font-family="微软雅黑" text-anchor="middle" font-size="19px" width="93px" fill="#323232" font-weight="400" align="middle" lineHeight="125%" anchor="middle" family="微软雅黑" size="19px" weight="400" font-style="" opacity="1" y="4.7315276915724205" transform="rotate(0)"><tspan id="SvgjsTspan1066" dy="23" x="56.5"><tspan id="SvgjsTspan1067" style="text-decoration:;">ant-design</tspan></tspan></text></g></g><g id="SvgjsG1068" transform="translate(453.88226624463687,187.04490199137024)"><path id="SvgjsPath1069" d="M 0 4Q 0 0 4 0L 82.94757104509404 0Q 86.94757104509404 0 86.94757104509404 4L 86.94757104509404 33.21305538314484Q 86.94757104509404 37.21305538314484 82.94757104509404 37.21305538314484L 4 37.21305538314484Q 0 37.21305538314484 0 33.21305538314484Z" stroke="rgba(50,50,50,1)" stroke-width="2" fill-opacity="1" fill="#ffffff"></path><g id="SvgjsG1070"><text id="SvgjsText1071" font-family="微软雅黑" text-anchor="middle" font-size="19px" width="67px" fill="#323232" font-weight="400" align="middle" lineHeight="125%" anchor="middle" family="微软雅黑" size="19px" weight="400" font-style="" opacity="1" y="4.7315276915724205" transform="rotate(0)"><tspan id="SvgjsTspan1072" dy="23" x="43.5"><tspan id="SvgjsTspan1073" style="text-decoration:;">Html5</tspan></tspan></text></g></g><g id="SvgjsG1074" transform="translate(566.538475708093,187.04490199137024)"><path id="SvgjsPath1075" d="M 0 4Q 0 0 4 0L 73.02560247124686 0Q 77.02560247124686 0 77.02560247124686 4L 77.02560247124686 33.21305538314484Q 77.02560247124686 37.21305538314484 73.02560247124686 37.21305538314484L 4 37.21305538314484Q 0 37.21305538314484 0 33.21305538314484Z" stroke="rgba(50,50,50,1)" stroke-width="2" fill-opacity="1" fill="#ffffff"></path><g id="SvgjsG1076"><text id="SvgjsText1077" font-family="微软雅黑" text-anchor="middle" font-size="19px" width="58px" fill="#323232" font-weight="400" align="middle" lineHeight="125%" anchor="middle" family="微软雅黑" size="19px" weight="400" font-style="" opacity="1" y="4.7315276915724205" transform="rotate(0)"><tspan id="SvgjsTspan1078" dy="23" x="39"><tspan id="SvgjsTspan1079" style="text-decoration:;">CSS3</tspan></tspan></text></g></g><g id="SvgjsG1080" transform="translate(766.4547610416962,187.03091344360746)"><path id="SvgjsPath1081" d="M 0 4Q 0 0 4 0L 69.59637353185914 0Q 73.59637353185914 0 73.59637353185914 4L 73.59637353185914 33.24103247867035Q 73.59637353185914 37.24103247867035 69.59637353185914 37.24103247867035L 4 37.24103247867035Q 0 37.24103247867035 0 33.24103247867035Z" stroke="rgba(50,50,50,1)" stroke-width="2" fill-opacity="1" fill="#ffffff"></path><g id="SvgjsG1082"><text id="SvgjsText1083" font-family="微软雅黑" text-anchor="middle" font-size="19px" width="54px" fill="#323232" font-weight="400" align="middle" lineHeight="125%" anchor="middle" family="微软雅黑" size="19px" weight="400" font-style="" opacity="1" y="4.745516239335174" transform="rotate(0)"><tspan id="SvgjsTspan1084" dy="23" x="37"><tspan id="SvgjsTspan1085" style="text-decoration:;">Ajax</tspan></tspan></text></g></g><g id="SvgjsG1086" transform="translate(665.1048044499992,187.04490199137024)"><path id="SvgjsPath1087" d="M 0 4Q 0 0 4 0L 70.2671647736507 0Q 74.2671647736507 0 74.2671647736507 4L 74.2671647736507 33.21305538314484Q 74.2671647736507 37.21305538314484 70.2671647736507 37.21305538314484L 4 37.21305538314484Q 0 37.21305538314484 0 33.21305538314484Z" stroke="rgba(50,50,50,1)" stroke-width="2" fill-opacity="1" fill="#ffffff"></path><g id="SvgjsG1088"><text id="SvgjsText1089" font-family="微软雅黑" text-anchor="middle" font-size="19px" width="55px" fill="#323232" font-weight="400" align="middle" lineHeight="125%" anchor="middle" family="微软雅黑" size="19px" weight="400" font-style="" opacity="1" y="4.7315276915724205" transform="rotate(0)"><tspan id="SvgjsTspan1090" dy="23" x="37.5"><tspan id="SvgjsTspan1091" style="text-decoration:;">React</tspan></tspan></text></g></g><g id="SvgjsG1092" transform="translate(894.1977885766578,167.59190692784637)"><path id="SvgjsPath1093" d="M 0 4Q 0 0 4 0L 378.9272114233422 0Q 382.9272114233422 0 382.9272114233422 4L 382.9272114233422 67.28788104720184Q 382.9272114233422 71.28788104720184 378.9272114233422 71.28788104720184L 4 71.28788104720184Q 0 71.28788104720184 0 67.28788104720184Z" stroke="rgba(50,50,50,1)" stroke-width="2" fill-opacity="1" fill="#ccff99"></path><g id="SvgjsG1094"><text id="SvgjsText1095" font-family="微软雅黑" text-anchor="start" font-size="13px" width="363px" fill="#323232" font-weight="700" align="top" lineHeight="125%" anchor="start" family="微软雅黑" size="13px" weight="700" font-style="" opacity="1" y="-1.625" transform="rotate(0)"><tspan id="SvgjsTspan1096" dy="16" x="10"><tspan id="SvgjsTspan1097" style="text-decoration:;">Mobile Devices</tspan></tspan></text></g></g><g id="SvgjsG1098" transform="translate(928.7773732462297,187.6311240143034)"><path id="SvgjsPath1099" d="M 0 4Q 0 0 4 0L 138.8973863261514 0Q 142.8973863261514 0 142.8973863261514 4L 142.8973863261514 32.04061133727859Q 142.8973863261514 36.04061133727859 138.8973863261514 36.04061133727859L 4 36.04061133727859Q 0 36.04061133727859 0 32.04061133727859Z" stroke="rgba(50,50,50,1)" stroke-width="2" fill-opacity="1" fill="#ffffff"></path><g id="SvgjsG1100"><text id="SvgjsText1101" font-family="微软雅黑" text-anchor="middle" font-size="19px" width="123px" fill="#323232" font-weight="400" align="middle" lineHeight="125%" anchor="middle" family="微软雅黑" size="19px" weight="400" font-style="" opacity="1" y="4.1453056686392955" transform="rotate(0)"><tspan id="SvgjsTspan1102" dy="23" x="71.5"><tspan id="SvgjsTspan1103" style="text-decoration:;">Android</tspan></tspan></text></g></g><g id="SvgjsG1104" transform="translate(1110.2474538557408,187.6311240143034)"><path id="SvgjsPath1105" d="M 0 4Q 0 0 4 0L 128.96538904853946 0Q 132.96538904853946 0 132.96538904853946 4L 132.96538904853946 32.04061133727859Q 132.96538904853946 36.04061133727859 128.96538904853946 36.04061133727859L 4 36.04061133727859Q 0 36.04061133727859 0 32.04061133727859Z" stroke="rgba(50,50,50,1)" stroke-width="2" fill-opacity="1" fill="#ffffff"></path><g id="SvgjsG1106"><text id="SvgjsText1107" font-family="微软雅黑" text-anchor="middle" font-size="19px" width="113px" fill="#323232" font-weight="400" align="middle" lineHeight="125%" anchor="middle" family="微软雅黑" size="19px" weight="400" font-style="" opacity="1" y="4.1453056686392955" transform="rotate(0)"><tspan id="SvgjsTspan1108" dy="23" x="66.5"><tspan id="SvgjsTspan1109" style="text-decoration:;">Html5</tspan></tspan></text></g></g><g id="SvgjsG1110" transform="translate(53.37063079745252,267.8029563809512)"><path id="SvgjsPath1111" d="M 0 4Q 0 0 4 0L 125.19225078372841 0Q 129.1922507837284 0 129.1922507837284 4L 129.1922507837284 61.09912995786539Q 129.1922507837284 65.09912995786539 125.19225078372841 65.09912995786539L 4 65.09912995786539Q 0 65.09912995786539 0 61.09912995786539Z" stroke="rgba(50,50,50,1)" stroke-width="2" fill-opacity="1" fill="#99ff99"></path><g id="SvgjsG1112"><text id="SvgjsText1113" font-family="微软雅黑" text-anchor="middle" font-size="24px" width="110px" fill="#323232" font-weight="400" align="middle" lineHeight="125%" anchor="middle" family="微软雅黑" size="24px" weight="400" font-style="" opacity="1" y="-2.4504350210673067" transform="rotate(0)"><tspan id="SvgjsTspan1114" dy="30" x="65"><tspan id="SvgjsTspan1115" style="text-decoration:;">Display </tspan></tspan><tspan id="SvgjsTspan1116" dy="30" x="65"><tspan id="SvgjsTspan1117" style="text-decoration:;">layer</tspan></tspan></text></g></g><g id="SvgjsG1118" transform="translate(854.7064255817729,267.8029563809513)"><path id="SvgjsPath1119" d="M 0 4Q 0 0 4 0L 228.5694601051107 0Q 232.5694601051107 0 232.5694601051107 4L 232.5694601051107 63.527949336174515Q 232.5694601051107 67.52794933617452 228.5694601051107 67.52794933617452L 4 67.52794933617452Q 0 67.52794933617452 0 63.527949336174515Z" stroke="rgba(50,50,50,1)" stroke-width="2" fill-opacity="1" fill="#ffff99"></path><g id="SvgjsG1120"><text id="SvgjsText1121" font-family="微软雅黑" text-anchor="middle" font-size="24px" width="213px" fill="#323232" font-weight="400" align="middle" lineHeight="125%" anchor="middle" family="微软雅黑" size="24px" weight="400" font-style="" opacity="1" y="13.763974668087258" transform="rotate(0)"><tspan id="SvgjsTspan1122" dy="30" x="116.5"><tspan id="SvgjsTspan1123" style="text-decoration:;">Http/Websocket</tspan></tspan></text></g></g><g id="SvgjsG1124" transform="translate(1157.2128429042803,281.8398322470524)"><path id="SvgjsPath1125" d="M 0 4Q 0 0 4 0L 115.91215709571975 0Q 119.91215709571975 0 119.91215709571975 4L 119.91215709571975 343.78559031084535Q 119.91215709571975 347.78559031084535 115.91215709571975 347.78559031084535L 4 347.78559031084535Q 0 347.78559031084535 0 343.78559031084535Z" stroke="rgba(50,50,50,1)" stroke-width="2" fill-opacity="1" fill="#ff9999"></path><g id="SvgjsG1126"><text id="SvgjsText1127" font-family="微软雅黑" text-anchor="middle" font-size="26px" width="100px" fill="#323232" font-weight="400" align="middle" lineHeight="125%" anchor="middle" family="微软雅黑" size="26px" weight="400" font-style="" opacity="1" y="120.64279515542268" transform="rotate(0)"><tspan id="SvgjsTspan1128" dy="32" x="60"><tspan id="SvgjsTspan1129" style="text-decoration:;">Permissi</tspan></tspan><tspan id="SvgjsTspan1130" dy="32" x="60"><tspan id="SvgjsTspan1131" style="text-decoration:;">on</tspan></tspan><tspan id="SvgjsTspan1132" dy="32" x="60"><tspan id="SvgjsTspan1133" style="text-decoration:;">Control</tspan></tspan></text></g></g><g id="SvgjsG1134" transform="translate(346.0174755316748,267.33523010603665)"><path id="SvgjsPath1135" d="M 0 4Q 0 0 4 0L 489.5509527824315 0Q 493.5509527824315 0 493.5509527824315 4L 493.5509527824315 70.21496629933472Q 493.5509527824315 74.21496629933472 489.5509527824315 74.21496629933472L 4 74.21496629933472Q 0 74.21496629933472 0 70.21496629933472Z" stroke="rgba(50,50,50,1)" stroke-width="2" fill-opacity="1" fill="#ffcc99"></path><g id="SvgjsG1136"><text id="SvgjsText1137" font-family="微软雅黑" text-anchor="start" font-size="23px" width="474px" fill="#323232" font-weight="400" align="middle" lineHeight="125%" anchor="start" family="微软雅黑" size="23px" weight="400" font-style="" opacity="1" y="18.23248314966736" transform="rotate(0)"><tspan id="SvgjsTspan1138" dy="28" x="10"><tspan id="SvgjsTspan1139" style="text-decoration:;">Async Interaction</tspan></tspan></text></g></g><g id="SvgjsG1140" transform="translate(617.125,285.6757241728245)"><path id="SvgjsPath1141" d="M 0 4Q 0 0 4 0L 68.57711060498525 0Q 72.57711060498525 0 72.57711060498525 4L 72.57711060498525 29.911512544853167Q 72.57711060498525 33.91151254485317 68.57711060498525 33.91151254485317L 4 33.91151254485317Q 0 33.91151254485317 0 29.911512544853167Z" stroke="rgba(50,50,50,1)" stroke-width="2" fill-opacity="1" fill="#ffffff"></path><g id="SvgjsG1142"><text id="SvgjsText1143" font-family="微软雅黑" text-anchor="middle" font-size="19px" width="53px" fill="#323232" font-weight="400" align="middle" lineHeight="125%" anchor="middle" family="微软雅黑" size="19px" weight="400" font-style="" opacity="1" y="3.0807562724265836" transform="rotate(0)"><tspan id="SvgjsTspan1144" dy="23" x="36.5"><tspan id="SvgjsTspan1145" style="text-decoration:;">POST</tspan></tspan></text></g></g><g id="SvgjsG1146" transform="translate(700.1341904176936,283.54662538039906)"><path id="SvgjsPath1147" d="M 0 4Q 0 0 4 0L 91.19242124289819 0Q 95.19242124289819 0 95.19242124289819 4L 95.19242124289819 32.04061133727859Q 95.19242124289819 36.04061133727859 91.19242124289819 36.04061133727859L 4 36.04061133727859Q 0 36.04061133727859 0 32.04061133727859Z" stroke="rgba(50,50,50,1)" stroke-width="2" fill-opacity="1" fill="#ffffff"></path><g id="SvgjsG1148"><text id="SvgjsText1149" font-family="微软雅黑" text-anchor="middle" font-size="19px" width="76px" fill="#323232" font-weight="400" align="middle" lineHeight="125%" anchor="middle" family="微软雅黑" size="19px" weight="400" font-style="" opacity="1" y="4.1453056686392955" transform="rotate(0)"><tspan id="SvgjsTspan1150" dy="23" x="48"><tspan id="SvgjsTspan1151" style="text-decoration:;">Get</tspan></tspan></text></g></g><g id="SvgjsG1152" transform="translate(588.9722276269758,246.00543356567437)"><path id="SvgjsPath1153" d="M 22.70908537615213 0L 46.106324854611906 0L 46.106324854611906 14.49549254230639L 68.81541023076403 14.49549254230639L 34.407705115382015 26.35544098601162L 0 14.49549254230639L 22.70908537615213 14.49549254230639L 22.70908537615213 0Z" stroke="rgba(50,50,50,1)" stroke-width="2" fill-opacity="1" fill="#ffffff"></path><g id="SvgjsG1154"><text id="SvgjsText1155" font-family="微软雅黑" text-anchor="middle" font-size="13px" width="97px" fill="#323232" font-weight="400" align="middle" lineHeight="125%" anchor="middle" family="微软雅黑" size="13px" weight="400" font-style="" opacity="1" y="2.2349484437052283" transform="rotate(0)"></text></g></g><g id="SvgjsG1156" transform="translate(56.43745185182689,145.16730335053398)"><path id="SvgjsPath1157" d="M 0 12.466227823258647L 1085.3972289594576 12.466227823258647" stroke-dasharray="10,6" stroke="rgba(136,136,136,1)" stroke-width="1" fill="none"></path><path id="SvgjsPath1158" d="M 0 0L 1085.3972289594576 0L 1085.3972289594576 24.932455646517294L 0 24.932455646517294Z" stroke="none" fill="none"></path></g><g id="SvgjsG1159" transform="translate(43.751223034496945,242.87050073443402)"><path id="SvgjsPath1160" d="M 0 12.466227823258647L 1098.0834577767873 12.466227823258647" stroke-dasharray="10,6" stroke="rgba(136,136,136,1)" stroke-width="1" fill="none"></path><path id="SvgjsPath1161" d="M 0 0L 1098.0834577767873 0L 1098.0834577767873 24.932455646517294L 0 24.932455646517294Z" stroke="none" fill="none"></path></g><g id="SvgjsG1162" transform="translate(1032.1349394506474,364.859375)"><path id="SvgjsPath1163" d="M 0 4Q 0 0 4 0L 90.99006054935262 0Q 94.99006054935262 0 94.99006054935262 4L 94.99006054935262 259.76604755789776Q 94.99006054935262 263.76604755789776 90.99006054935262 263.76604755789776L 4 263.76604755789776Q 0 263.76604755789776 0 259.76604755789776Z" stroke="rgba(50,50,50,1)" stroke-width="2" fill-opacity="1" fill="#ccff99"></path><g id="SvgjsG1164"><text id="SvgjsText1165" font-family="微软雅黑" text-anchor="middle" font-size="26px" width="75px" fill="#323232" font-weight="400" align="middle" lineHeight="125%" anchor="middle" family="微软雅黑" size="26px" weight="400" font-style="" opacity="1" y="78.63302377894888" transform="rotate(0)"><tspan id="SvgjsTspan1166" dy="32" x="47.5"><tspan id="SvgjsTspan1167" style="text-decoration:;">Log </tspan></tspan><tspan id="SvgjsTspan1168" dy="32" x="47.5"><tspan id="SvgjsTspan1169" style="text-decoration:;">Recor</tspan></tspan><tspan id="SvgjsTspan1170" dy="32" x="47.5"><tspan id="SvgjsTspan1171" style="text-decoration:;">d</tspan></tspan></text></g></g><g id="SvgjsG1172" transform="translate(53.37063079745252,368.26623623199873)"><path id="SvgjsPath1173" d="M 0 4Q 0 0 4 0L 128.25907183810278 0Q 132.25907183810278 0 132.25907183810278 4L 132.25907183810278 262.59313876800104Q 132.25907183810278 266.59313876800104 128.25907183810278 266.59313876800104L 4 266.59313876800104Q 0 266.59313876800104 0 262.59313876800104Z" stroke="rgba(50,50,50,1)" stroke-width="2" fill-opacity="1" fill="#99ff99"></path><g id="SvgjsG1174"><text id="SvgjsText1175" font-family="微软雅黑" text-anchor="middle" font-size="24px" width="113px" fill="#323232" font-weight="400" align="middle" lineHeight="125%" anchor="middle" family="微软雅黑" size="24px" weight="400" font-style="" opacity="1" y="38.29656938400052" transform="rotate(0)"><tspan id="SvgjsTspan1176" dy="30" x="66.5"><tspan id="SvgjsTspan1177" style="text-decoration:;">Applicatio</tspan></tspan><tspan id="SvgjsTspan1178" dy="30" x="66.5"><tspan id="SvgjsTspan1179" style="text-decoration:;">n </tspan></tspan><tspan id="SvgjsTspan1180" dy="30" x="66.5"><tspan id="SvgjsTspan1181" style="text-decoration:;">Business L</tspan></tspan><tspan id="SvgjsTspan1182" dy="30" x="66.5"><tspan id="SvgjsTspan1183" style="text-decoration:;">ayer</tspan></tspan><tspan id="SvgjsTspan1184" dy="30" x="66.5"><tspan id="SvgjsTspan1185" style="text-decoration:;">（actix-</tspan></tspan><tspan id="SvgjsTspan1186" dy="30" x="66.5"><tspan id="SvgjsTspan1187" style="text-decoration:;">web）</tspan></tspan></text></g></g><g id="SvgjsG1188" transform="translate(588.9722276269758,341.55019640537137)"><path id="SvgjsPath1189" d="M 22.70908537615213 0L 46.106324854611906 0L 46.106324854611906 14.49549254230639L 68.81541023076403 14.49549254230639L 34.407705115382015 26.35544098601162L 0 14.49549254230639L 22.70908537615213 14.49549254230639L 22.70908537615213 0Z" stroke="rgba(50,50,50,1)" stroke-width="2" fill-opacity="1" fill="#ffffff"></path><g id="SvgjsG1190"><text id="SvgjsText1191" font-family="微软雅黑" text-anchor="middle" font-size="13px" width="97px" fill="#323232" font-weight="400" align="middle" lineHeight="125%" anchor="middle" family="微软雅黑" size="13px" weight="400" font-style="" opacity="1" y="2.2349484437052283" transform="rotate(0)"></text></g></g><g id="SvgjsG1192" transform="translate(53.37063079745252,337.46000450955125)"><path id="SvgjsPath1193" d="M 0 12.466227823258647L 1028.6776813971146 12.466227823258647" stroke-dasharray="10,6" stroke="rgba(136,136,136,1)" stroke-width="1" fill="none"></path><path id="SvgjsPath1194" d="M 0 0L 1028.6776813971146 0L 1028.6776813971146 24.932455646517294L 0 24.932455646517294Z" stroke="none" fill="none"></path></g><g id="SvgjsG1195" transform="translate(53.37063079745252,655.3372040096854)"><path id="SvgjsPath1196" d="M 0 4Q 0 0 4 0L 125.19225078372841 0Q 129.1922507837284 0 129.1922507837284 4L 129.1922507837284 68.16346264486107Q 129.1922507837284 72.16346264486107 125.19225078372841 72.16346264486107L 4 72.16346264486107Q 0 72.16346264486107 0 68.16346264486107Z" stroke="rgba(50,50,50,1)" stroke-width="2" fill-opacity="1" fill="#99ff99"></path><g id="SvgjsG1197"><text id="SvgjsText1198" font-family="微软雅黑" text-anchor="middle" font-size="24px" width="110px" fill="#323232" font-weight="400" align="middle" lineHeight="125%" anchor="middle" family="微软雅黑" size="24px" weight="400" font-style="" opacity="1" y="1.0817313224305352" transform="rotate(0)"><tspan id="SvgjsTspan1199" dy="30" x="65"><tspan id="SvgjsTspan1200" style="text-decoration:;">Data Layer</tspan></tspan><tspan id="SvgjsTspan1201" dy="30" x="65"><tspan id="SvgjsTspan1202" style="text-decoration:;">（diesel）</tspan></tspan></text></g></g><g id="SvgjsG1203" transform="translate(295.125,656.4672172377298)"><path id="SvgjsPath1204" d="M 0 4Q 0 0 4 0L 978.9286884547212 0Q 982.9286884547212 0 982.9286884547212 4L 982.9286884547212 68.06326646315392Q 982.9286884547212 72.06326646315392 978.9286884547212 72.06326646315392L 4 72.06326646315392Q 0 72.06326646315392 0 68.06326646315392Z" stroke="rgba(50,50,50,1)" stroke-width="2" fill-opacity="1" fill="#99ff99"></path><g id="SvgjsG1205"><text id="SvgjsText1206" font-family="微软雅黑" text-anchor="middle" font-size="13px" width="963px" fill="#323232" font-weight="400" align="middle" lineHeight="125%" anchor="middle" family="微软雅黑" size="13px" weight="400" font-style="" opacity="1" y="26.40663323157696" transform="rotate(0)"></text></g></g><g id="SvgjsG1207" transform="translate(364.2268625572493,670.7766326229105)"><path id="SvgjsPath1208" d="M 0 4Q 0 0 4 0L 111.15232778358586 0Q 115.15232778358586 0 115.15232778358586 4L 115.15232778358586 39.44443569279247Q 115.15232778358586 43.44443569279247 111.15232778358586 43.44443569279247L 4 43.44443569279247Q 0 43.44443569279247 0 39.44443569279247Z" stroke="rgba(50,50,50,1)" stroke-width="2" fill-opacity="1" fill="#ffffff"></path><g id="SvgjsG1209"><text id="SvgjsText1210" font-family="微软雅黑" text-anchor="middle" font-size="21px" width="96px" fill="#323232" font-weight="400" align="middle" lineHeight="125%" anchor="middle" family="微软雅黑" size="21px" weight="400" font-style="" opacity="1" y="-8.902782153603766" transform="rotate(0)"><tspan id="SvgjsTspan1211" dy="26" x="58"><tspan id="SvgjsTspan1212" style="text-decoration:;">Data </tspan></tspan><tspan id="SvgjsTspan1213" dy="26" x="58"><tspan id="SvgjsTspan1214" style="text-decoration:;">Cache</tspan></tspan></text></g></g><g id="SvgjsG1215" transform="translate(511.9201499970243,666.3598725731133)"><path id="SvgjsPath1216" d="M 0 4Q 0 0 4 0L 145.20485000297572 0Q 149.20485000297572 0 149.20485000297572 4L 149.20485000297572 43.86119574258964Q 149.20485000297572 47.86119574258964 145.20485000297572 47.86119574258964L 4 47.86119574258964Q 0 47.86119574258964 0 43.86119574258964Z" stroke="rgba(50,50,50,1)" stroke-width="2" fill-opacity="1" fill="#ffffff"></path><g id="SvgjsG1217"><text id="SvgjsText1218" font-family="微软雅黑" text-anchor="middle" font-size="21px" width="130px" fill="#323232" font-weight="400" align="middle" lineHeight="125%" anchor="middle" family="微软雅黑" size="21px" weight="400" font-style="" opacity="1" y="-6.694402128705178" transform="rotate(0)"><tspan id="SvgjsTspan1219" dy="26" x="75"><tspan id="SvgjsTspan1220" style="text-decoration:;">Custom </tspan></tspan><tspan id="SvgjsTspan1221" dy="26" x="75"><tspan id="SvgjsTspan1222" style="text-decoration:;">Functions</tspan></tspan></text></g></g><g id="SvgjsG1223" transform="translate(699.549255822623,670.7766326229105)"><path id="SvgjsPath1224" d="M 0 4Q 0 0 4 0L 139.57574417737703 0Q 143.57574417737703 0 143.57574417737703 4L 143.57574417737703 35.02767564299529Q 143.57574417737703 39.02767564299529 139.57574417737703 39.02767564299529L 4 39.02767564299529Q 0 39.02767564299529 0 35.02767564299529Z" stroke="rgba(50,50,50,1)" stroke-width="2" fill-opacity="1" fill="#ffffff"></path><g id="SvgjsG1225"><text id="SvgjsText1226" font-family="微软雅黑" text-anchor="middle" font-size="21px" width="124px" fill="#323232" font-weight="400" align="middle" lineHeight="125%" anchor="middle" family="微软雅黑" size="21px" weight="400" font-style="" opacity="1" y="1.8888378214976456" transform="rotate(0)"><tspan id="SvgjsTspan1227" dy="26" x="72"><tspan id="SvgjsTspan1228" style="text-decoration:;">Transaction</tspan></tspan></text></g></g><g id="SvgjsG1229" transform="translate(871.3719692236498,670.7766326229107)"><path id="SvgjsPath1230" d="M 0 4Q 0 0 4 0L 123.76195716795166 0Q 127.76195716795166 0 127.76195716795166 4L 127.76195716795166 35.027675642994836Q 127.76195716795166 39.027675642994836 123.76195716795166 39.027675642994836L 4 39.027675642994836Q 0 39.027675642994836 0 35.027675642994836Z" stroke="rgba(50,50,50,1)" stroke-width="2" fill-opacity="1" fill="#ffffff"></path><g id="SvgjsG1231"><text id="SvgjsText1232" font-family="微软雅黑" text-anchor="middle" font-size="21px" width="108px" fill="#323232" font-weight="400" align="middle" lineHeight="125%" anchor="middle" family="微软雅黑" size="21px" weight="400" font-style="" opacity="1" y="-11.111162178502582" transform="rotate(0)"><tspan id="SvgjsTspan1233" dy="26" x="64"><tspan id="SvgjsTspan1234" style="text-decoration:;">Read-write </tspan></tspan><tspan id="SvgjsTspan1235" dy="26" x="64"><tspan id="SvgjsTspan1236" style="text-decoration:;">separation</tspan></tspan></text></g></g><g id="SvgjsG1237" transform="translate(1052.8987053694618,670.7766326229106)"><path id="SvgjsPath1238" d="M 0 4Q 0 0 4 0L 106.38261186540376 0Q 110.38261186540376 0 110.38261186540376 4L 110.38261186540376 35.02767564299511Q 110.38261186540376 39.02767564299511 106.38261186540376 39.02767564299511L 4 39.02767564299511Q 0 39.02767564299511 0 35.02767564299511Z" stroke="rgba(50,50,50,1)" stroke-width="2" fill-opacity="1" fill="#ffffff"></path><g id="SvgjsG1239"><text id="SvgjsText1240" font-family="微软雅黑" text-anchor="middle" font-size="21px" width="91px" fill="#323232" font-weight="400" align="middle" lineHeight="125%" anchor="middle" family="微软雅黑" size="21px" weight="400" font-style="" opacity="1" y="1.8888378214975567" transform="rotate(0)"><tspan id="SvgjsTspan1241" dy="26" x="55.5"><tspan id="SvgjsTspan1242" style="text-decoration:;">... ...</tspan></tspan></text></g></g><g id="SvgjsG1243" transform="translate(56.43745185182689,752.433122301064)"><path id="SvgjsPath1244" d="M 0 4Q 0 0 4 0L 125.19225078372841 0Q 129.1922507837284 0 129.1922507837284 4L 129.1922507837284 68.16346264486107Q 129.1922507837284 72.16346264486107 125.19225078372841 72.16346264486107L 4 72.16346264486107Q 0 72.16346264486107 0 68.16346264486107Z" stroke="rgba(50,50,50,1)" stroke-width="2" fill-opacity="1" fill="#99ff99"></path><g id="SvgjsG1245"><text id="SvgjsText1246" font-family="微软雅黑" text-anchor="middle" font-size="24px" width="110px" fill="#323232" font-weight="400" align="middle" lineHeight="125%" anchor="middle" family="微软雅黑" size="24px" weight="400" font-style="" opacity="1" y="16.081731322430535" transform="rotate(0)"><tspan id="SvgjsTspan1247" dy="30" x="65"><tspan id="SvgjsTspan1248" style="text-decoration:;">DB</tspan></tspan></text></g></g><g id="SvgjsG1249" transform="translate(295.125,763.076570743613)"><path id="SvgjsPath1250" d="M 0 4Q 0 0 4 0L 978.9286884547212 0Q 982.9286884547212 0 982.9286884547212 4L 982.9286884547212 63.78280425638695Q 982.9286884547212 67.78280425638695 978.9286884547212 67.78280425638695L 4 67.78280425638695Q 0 67.78280425638695 0 63.78280425638695Z" stroke="rgba(50,50,50,1)" stroke-width="2" fill-opacity="1" fill="#ccffcc"></path><g id="SvgjsG1251"><text id="SvgjsText1252" font-family="微软雅黑" text-anchor="middle" font-size="13px" width="963px" fill="#323232" font-weight="400" align="middle" lineHeight="125%" anchor="middle" family="微软雅黑" size="13px" weight="400" font-style="" opacity="1" y="24.266402128193477" transform="rotate(0)"></text></g></g><g id="SvgjsG1253" transform="translate(56.43745185182689,866.8697616021477)"><path id="SvgjsPath1254" d="M 0 4Q 0 0 4 0L 125.19225078372841 0Q 129.1922507837284 0 129.1922507837284 4L 129.1922507837284 68.16346264486107Q 129.1922507837284 72.16346264486107 125.19225078372841 72.16346264486107L 4 72.16346264486107Q 0 72.16346264486107 0 68.16346264486107Z" stroke="rgba(50,50,50,1)" stroke-width="2" fill-opacity="1" fill="#99ff99"></path><g id="SvgjsG1255"><text id="SvgjsText1256" font-family="微软雅黑" text-anchor="middle" font-size="24px" width="110px" fill="#323232" font-weight="400" align="middle" lineHeight="125%" anchor="middle" family="微软雅黑" size="24px" weight="400" font-style="" opacity="1" y="1.0817313224305352" transform="rotate(0)"><tspan id="SvgjsTspan1257" dy="30" x="65"><tspan id="SvgjsTspan1258" style="text-decoration:;">Infrastruct</tspan></tspan><tspan id="SvgjsTspan1259" dy="30" x="65"><tspan id="SvgjsTspan1260" style="text-decoration:;">ure</tspan></tspan></text></g></g><g id="SvgjsG1261" transform="translate(295.125,869.8697616021484)"><path id="SvgjsPath1262" d="M 0 4Q 0 0 4 0L 978.9286884547214 0Q 982.9286884547214 0 982.9286884547214 4L 982.9286884547214 62.16346264485992Q 982.9286884547214 66.16346264485992 978.9286884547214 66.16346264485992L 4 66.16346264485992Q 0 66.16346264485992 0 62.16346264485992Z" stroke="rgba(50,50,50,1)" stroke-width="2" fill-opacity="1" fill="#99ccff"></path><g id="SvgjsG1263"><text id="SvgjsText1264" font-family="微软雅黑" text-anchor="middle" font-size="13px" width="963px" fill="#323232" font-weight="400" align="middle" lineHeight="125%" anchor="middle" family="微软雅黑" size="13px" weight="400" font-style="" opacity="1" y="23.45673132242996" transform="rotate(0)"></text></g></g><g id="SvgjsG1265" transform="translate(560.8298372897309,886.4376551030816)"><path id="SvgjsPath1266" d="M 0 4Q 0 0 4 0L 127.21377639457728 0Q 131.21377639457728 0 131.21377639457728 4L 131.21377639457728 35.027675642994836Q 131.21377639457728 39.027675642994836 127.21377639457728 39.027675642994836L 4 39.027675642994836Q 0 39.027675642994836 0 35.027675642994836Z" stroke="rgba(50,50,50,1)" stroke-width="2" fill-opacity="1" fill="#ffffff"></path><g id="SvgjsG1267"><text id="SvgjsText1268" font-family="微软雅黑" text-anchor="middle" font-size="21px" width="112px" fill="#323232" font-weight="400" align="middle" lineHeight="125%" anchor="middle" family="微软雅黑" size="21px" weight="400" font-style="" opacity="1" y="1.8888378214974182" transform="rotate(0)"><tspan id="SvgjsTspan1269" dy="26" x="66"><tspan id="SvgjsTspan1270" style="text-decoration:;">OS</tspan></tspan></text></g></g><g id="SvgjsG1271" transform="translate(918.0158846356112,886.4376551030814)"><path id="SvgjsPath1272" d="M 0 4Q 0 0 4 0L 165.26000105127238 0Q 169.26000105127238 0 169.26000105127238 4L 169.26000105127238 35.02767564299511Q 169.26000105127238 39.02767564299511 165.26000105127238 39.02767564299511L 4 39.02767564299511Q 0 39.02767564299511 0 35.02767564299511Z" stroke="rgba(50,50,50,1)" stroke-width="2" fill-opacity="1" fill="#ffffff"></path><g id="SvgjsG1273"><text id="SvgjsText1274" font-family="微软雅黑" text-anchor="middle" font-size="21px" width="150px" fill="#323232" font-weight="400" align="middle" lineHeight="125%" anchor="middle" family="微软雅黑" size="21px" weight="400" font-style="" opacity="1" y="1.8888378214975567" transform="rotate(0)"><tspan id="SvgjsTspan1275" dy="26" x="85"><tspan id="SvgjsTspan1276" style="text-decoration:;">Containers</tspan></tspan></text></g></g><g id="SvgjsG1277" transform="translate(355.42455344778716,774.6255577985521)"><path id="SvgjsPath1278" d="M 0 4Q 0 0 4 0L 611.8229004079536 0Q 615.8229004079536 0 615.8229004079536 4L 615.8229004079536 29.91889151819879Q 615.8229004079536 33.91889151819879 611.8229004079536 33.91889151819879L 4 33.91889151819879Q 0 33.91889151819879 0 29.91889151819879Z" stroke="rgba(50,50,50,1)" stroke-width="2" fill-opacity="1" fill="#ffffff"></path><g id="SvgjsG1279"><text id="SvgjsText1280" font-family="微软雅黑" text-anchor="middle" font-size="19px" width="596px" fill="#323232" font-weight="400" align="middle" lineHeight="125%" anchor="middle" family="微软雅黑" size="19px" weight="400" font-style="" opacity="1" y="3.0844457590993954" transform="rotate(0)"><tspan id="SvgjsTspan1281" dy="23" x="308"><tspan id="SvgjsTspan1282" style="text-decoration:;">Persistent Storage Database：  Mysql or Postgres</tspan></tspan></text></g></g><g id="SvgjsG1283" transform="translate(720.2536915381925,603.2699815718861)"><path id="SvgjsPath1284" d="M 22.70908537615213 0L 46.106324854611906 0L 46.106324854611906 14.49549254230639L 68.81541023076403 14.49549254230639L 34.407705115382015 26.35544098601162L 0 14.49549254230639L 22.70908537615213 14.49549254230639L 22.70908537615213 0Z" stroke="rgba(50,50,50,1)" stroke-width="2" fill-opacity="1" fill="#ffffff"></path><g id="SvgjsG1285"><text id="SvgjsText1286" font-family="微软雅黑" text-anchor="middle" font-size="13px" width="97px" fill="#323232" font-weight="400" align="middle" lineHeight="125%" anchor="middle" family="微软雅黑" size="13px" weight="400" font-style="" opacity="1" y="2.2349484437052283" transform="rotate(0)"></text></g></g><g id="SvgjsG1287" transform="translate(716.9722276269758,736.7211297576014)"><path id="SvgjsPath1288" d="M 22.70908537615213 0L 46.106324854611906 0L 46.106324854611906 14.49549254230639L 68.81541023076403 14.49549254230639L 34.407705115382015 26.35544098601162L 0 14.49549254230639L 22.70908537615213 14.49549254230639L 22.70908537615213 0Z" stroke="rgba(50,50,50,1)" stroke-width="2" fill-opacity="1" fill="#ffffff"></path><g id="SvgjsG1289"><text id="SvgjsText1290" font-family="微软雅黑" text-anchor="middle" font-size="13px" width="97px" fill="#323232" font-weight="400" align="middle" lineHeight="125%" anchor="middle" family="微软雅黑" size="13px" weight="400" font-style="" opacity="1" y="2.2349484437052283" transform="rotate(0)"></text></g></g><g id="SvgjsG1291" transform="translate(716.9722276269758,840.514320616136)"><path id="SvgjsPath1292" d="M 22.70908537615213 0L 46.106324854611906 0L 46.106324854611906 14.49549254230639L 68.81541023076403 14.49549254230639L 34.407705115382015 26.35544098601162L 0 14.49549254230639L 22.70908537615213 14.49549254230639L 22.70908537615213 0Z" stroke="rgba(50,50,50,1)" stroke-width="2" fill-opacity="1" fill="#ffffff"></path><g id="SvgjsG1293"><text id="SvgjsText1294" font-family="微软雅黑" text-anchor="middle" font-size="13px" width="97px" fill="#323232" font-weight="400" align="middle" lineHeight="125%" anchor="middle" family="微软雅黑" size="13px" weight="400" font-style="" opacity="1" y="2.2349484437052283" transform="rotate(0)"></text></g></g><g id="SvgjsG1295" transform="translate(25.01085701628108,1108.6254225578978)"><path id="SvgjsPath1296" d="M 0 12.466227823258647L 1085.3972289594576 12.466227823258647" stroke-dasharray="10,6" stroke="rgba(136,136,136,1)" stroke-width="1" fill="none"></path><path id="SvgjsPath1297" d="M 0 0L 1085.3972289594576 0L 1085.3972289594576 24.932455646517294L 0 24.932455646517294Z" stroke="none" fill="none"></path></g><g id="SvgjsG1298" transform="translate(83.73811100729074,959.5006666545464)"><path id="SvgjsPath1299" d="M 0 12.466227823258647L 1085.3972289594576 12.466227823258647" stroke-dasharray="10,6" stroke="rgba(136,136,136,1)" stroke-width="1" fill="none"></path><path id="SvgjsPath1300" d="M 0 0L 1085.3972289594576 0L 1085.3972289594576 24.932455646517294L 0 24.932455646517294Z" stroke="none" fill="none"></path></g><g id="SvgjsG1301" transform="translate(190.85142874943085,994.2400333884743)"><path id="SvgjsPath1302" d="M 0 12.466227823258647L 1091.5308710682061 12.466227823258647" stroke-dasharray="10,6" stroke="rgba(136,136,136,1)" stroke-width="1" fill="none"></path><path id="SvgjsPath1303" d="M 0 0L 1091.5308710682061 0L 1091.5308710682061 24.932455646517294L 0 24.932455646517294Z" stroke="none" fill="none"></path></g><g id="SvgjsG1304" transform="translate(295.125,386.2431398980325)"><path id="SvgjsPath1305" d="M 0 4Q 0 0 4 0L 202.79514999702428 0Q 206.79514999702428 0 206.79514999702428 4L 206.79514999702428 64.3960279638045Q 206.79514999702428 68.3960279638045 202.79514999702428 68.3960279638045L 4 68.3960279638045Q 0 68.3960279638045 0 64.3960279638045Z" stroke="rgba(50,50,50,1)" stroke-width="2" fill-opacity="1" fill="#ccff99"></path><g id="SvgjsG1306"><text id="SvgjsText1307" font-family="微软雅黑" text-anchor="middle" font-size="25px" width="187px" fill="#323232" font-weight="400" align="middle" lineHeight="125%" anchor="middle" family="微软雅黑" size="25px" weight="400" font-style="" opacity="1" y="13.57301398190225" transform="rotate(0)"><tspan id="SvgjsTspan1308" dy="31" x="103.5"><tspan id="SvgjsTspan1309" style="text-decoration:;">Task Management</tspan></tspan></text></g></g><g id="SvgjsG1310" transform="translate(521.30631240721,386.2431398980325)"><path id="SvgjsPath1311" d="M 0 4Q 0 0 4 0L 218.97327903136113 0Q 222.97327903136113 0 222.97327903136113 4L 222.97327903136113 64.3960279638045Q 222.97327903136113 68.3960279638045 218.97327903136113 68.3960279638045L 4 68.3960279638045Q 0 68.3960279638045 0 64.3960279638045Z" stroke="rgba(50,50,50,1)" stroke-width="2" fill-opacity="1" fill="#ccff99"></path><g id="SvgjsG1312"><text id="SvgjsText1313" font-family="微软雅黑" text-anchor="middle" font-size="25px" width="203px" fill="#323232" font-weight="400" align="middle" lineHeight="125%" anchor="middle" family="微软雅黑" size="25px" weight="400" font-style="" opacity="1" y="-1.9269860180977503" transform="rotate(0)"><tspan id="SvgjsTspan1314" dy="31" x="111.5"><tspan id="SvgjsTspan1315" style="text-decoration:;">Executor </tspan></tspan><tspan id="SvgjsTspan1316" dy="31" x="111.5"><tspan id="SvgjsTspan1317" style="text-decoration:;">Management</tspan></tspan></text></g></g><g id="SvgjsG1318" transform="translate(757.125,386.2431398980325)"><path id="SvgjsPath1319" d="M 0 4Q 0 0 4 0L 230 0Q 234 0 234 4L 234 57.616235101967504Q 234 61.616235101967504 230 61.616235101967504L 4 61.616235101967504Q 0 61.616235101967504 0 57.616235101967504Z" stroke="rgba(50,50,50,1)" stroke-width="2" fill-opacity="1" fill="#ccff99"></path><g id="SvgjsG1320"><text id="SvgjsText1321" font-family="微软雅黑" text-anchor="middle" font-size="25px" width="214px" fill="#323232" font-weight="400" align="middle" lineHeight="125%" anchor="middle" family="微软雅黑" size="25px" weight="400" font-style="" opacity="1" y="10.183117550983752" transform="rotate(0)"><tspan id="SvgjsTspan1322" dy="31" x="117"><tspan id="SvgjsTspan1323" style="text-decoration:;">Execution Group</tspan></tspan></text></g></g><g id="SvgjsG1324" transform="translate(295.125,497.4630124592925)"><path id="SvgjsPath1325" d="M 0 4Q 0 0 4 0L 202.79514999702428 0Q 206.79514999702428 0 206.79514999702428 4L 206.79514999702428 59.17615540254451Q 206.79514999702428 63.17615540254451 202.79514999702428 63.17615540254451L 4 63.17615540254451Q 0 63.17615540254451 0 59.17615540254451Z" stroke="rgba(50,50,50,1)" stroke-width="2" fill-opacity="1" fill="#ccff99"></path><g id="SvgjsG1326"><text id="SvgjsText1327" font-family="微软雅黑" text-anchor="middle" font-size="25px" width="187px" fill="#323232" font-weight="400" align="middle" lineHeight="125%" anchor="middle" family="微软雅黑" size="25px" weight="400" font-style="" opacity="1" y="10.963077701272255" transform="rotate(0)"><tspan id="SvgjsTspan1328" dy="31" x="103.5"><tspan id="SvgjsTspan1329" style="text-decoration:;">Home Reports</tspan></tspan></text></g></g><g id="SvgjsG1330" transform="translate(519.3791903408352,497.242972609581)"><path id="SvgjsPath1331" d="M 0 4Q 0 0 4 0L 222.82752316411074 0Q 226.82752316411074 0 226.82752316411074 4L 226.82752316411074 59.616235101967504Q 226.82752316411074 63.616235101967504 222.82752316411074 63.616235101967504L 4 63.616235101967504Q 0 63.616235101967504 0 59.616235101967504Z" stroke="rgba(50,50,50,1)" stroke-width="2" fill-opacity="1" fill="#ccff99"></path><g id="SvgjsG1332"><text id="SvgjsText1333" font-family="微软雅黑" text-anchor="middle" font-size="25px" width="207px" fill="#323232" font-weight="400" align="middle" lineHeight="125%" anchor="middle" family="微软雅黑" size="25px" weight="400" font-style="" opacity="1" y="11.183117550983752" transform="rotate(0)"><tspan id="SvgjsTspan1334" dy="31" x="113.5"><tspan id="SvgjsTspan1335" style="text-decoration:;">Data Analysis</tspan></tspan></text></g></g><g id="SvgjsG1336" transform="translate(761.9742904423165,497.4630124592925)"><path id="SvgjsPath1337" d="M 0 4Q 0 0 4 0L 225.1507095576835 0Q 229.1507095576835 0 229.1507095576835 4L 229.1507095576835 59.17615540254451Q 229.1507095576835 63.17615540254451 225.1507095576835 63.17615540254451L 4 63.17615540254451Q 0 63.17615540254451 0 59.17615540254451Z" stroke="rgba(50,50,50,1)" stroke-width="2" fill-opacity="1" fill="#ccff99"></path><g id="SvgjsG1338"><text id="SvgjsText1339" font-family="微软雅黑" text-anchor="middle" font-size="25px" width="210px" fill="#323232" font-weight="400" align="middle" lineHeight="125%" anchor="middle" family="微软雅黑" size="25px" weight="400" font-style="" opacity="1" y="10.963077701272255" transform="rotate(0)"><tspan id="SvgjsTspan1340" dy="31" x="115"><tspan id="SvgjsTspan1341" style="text-decoration:;">........</tspan></tspan></text></g></g></svg>